<svg width="204" height="192" viewBox="0 0 204 192" fill="none" xmlns="http://www.w3.org/2000/svg">
<circle cx="105.33" cy="90" r="90" fill="#F8EDE3"/>
<path d="M114.624 127.031L114.828 127.512L115.34 127.619L125.426 129.73L119.685 137.712L119.356 138.169L119.577 138.688L124.316 149.791L124.521 150.271L125.031 150.377L135.106 152.484L129.375 160.471L129.048 160.928L129.268 161.445L133.33 170.999L133.533 171.479L134.043 171.586L139.662 172.772L136.526 177.158L136.2 177.614L136.419 178.13L138.777 183.692L138.932 184.06L139.299 184.219L149.261 188.55L150.022 188.881L150.488 188.193L159.834 174.387L160.139 173.936L159.927 173.435L132.129 107.974C136.757 103.01 139.875 96.8241 141.109 90.1414C142.384 83.2408 141.594 76.1174 138.837 69.6641C136.22 63.4998 131.919 58.1971 126.428 54.3633C120.937 50.5292 114.477 48.3191 107.788 47.986C101.099 47.6529 94.4509 49.2102 88.6058 52.4798C82.7607 55.7493 77.9545 60.5988 74.7375 66.4731C71.5205 72.3473 70.0229 79.0087 70.416 85.6946C70.8091 92.3804 73.0771 98.8204 76.9603 104.277C80.8435 109.734 86.1849 113.987 92.3729 116.549C98.3169 119.01 104.811 119.815 111.167 118.887L114.624 127.031ZM91.7523 72.9391L91.7517 72.9377C91.2918 71.8568 91.0495 70.6959 91.0387 69.5213C91.0278 68.3467 91.2487 67.1815 91.6887 66.0923C92.1286 65.0031 92.779 64.0114 93.6026 63.1739C94.4262 62.3363 95.4068 61.6693 96.4884 61.2111L96.0984 60.2903L96.4898 61.2106C98.1191 60.5175 99.9175 60.3234 101.657 60.6527C103.397 60.9819 105 61.8199 106.263 63.0604C107.527 64.3009 108.394 65.8884 108.755 67.6219C109.116 69.3553 108.955 71.1569 108.291 72.7986C107.628 74.4404 106.493 75.8486 105.029 76.845C103.566 77.8414 101.839 78.3813 100.069 78.3964C98.2982 78.4114 96.563 77.9009 95.0826 76.9294C93.6022 75.958 92.4432 74.5693 91.7523 72.9391Z" fill="#292C32" stroke="#292C32" stroke-width="2"/>
<path d="M121.624 123.031L121.828 123.512L122.34 123.619L132.426 125.73L126.685 133.712L126.356 134.169L126.577 134.688L131.316 145.791L131.521 146.271L132.031 146.377L142.106 148.484L136.375 156.471L136.048 156.928L136.268 157.445L140.33 166.999L140.533 167.479L141.043 167.586L146.662 168.772L143.526 173.158L143.2 173.614L143.419 174.13L145.777 179.692L145.932 180.06L146.299 180.219L156.261 184.55L157.022 184.881L157.488 184.193L166.834 170.387L167.139 169.936L166.927 169.435L139.129 103.974C143.757 99.0099 146.875 92.8241 148.109 86.1414C149.384 79.2408 148.594 72.1174 145.837 65.6641C143.22 59.4998 138.919 54.1971 133.428 50.3633C127.937 46.5292 121.477 44.3191 114.788 43.986C108.099 43.6529 101.451 45.2102 95.6058 48.4798C89.7607 51.7493 84.9545 56.5988 81.7375 62.4731C78.5205 68.3473 77.0229 75.0087 77.416 81.6946C77.8091 88.3804 80.0771 94.8204 83.9603 100.277C87.8435 105.734 93.1849 109.987 99.3729 112.549C105.317 115.01 111.811 115.815 118.167 114.887L121.624 123.031ZM98.7523 68.9391L98.7517 68.9377C98.2918 67.8568 98.0495 66.6959 98.0387 65.5213C98.0278 64.3467 98.2487 63.1815 98.6887 62.0923C99.1286 61.0031 99.779 60.0114 100.603 59.1739C101.426 58.3363 102.407 57.6693 103.488 57.2111L103.098 56.2903L103.49 57.2106C105.119 56.5175 106.917 56.3234 108.657 56.6527C110.397 56.9819 112 57.8199 113.263 59.0604C114.527 60.3009 115.394 61.8884 115.755 63.6219C116.116 65.3553 115.955 67.1569 115.291 68.7986C114.628 70.4404 113.493 71.8486 112.029 72.845C110.566 73.8414 108.839 74.3813 107.069 74.3964C105.298 74.4114 103.563 73.9009 102.083 72.9294C100.602 71.958 99.4432 70.5693 98.7523 68.9391Z" fill="white" stroke="#292C32" stroke-width="2"/>
<path d="M63.5644 116.374L63.3111 116.831L63.5416 117.3L68.0878 126.548L58.2635 126.938L57.7 126.96L57.4275 127.454L51.596 138.024L51.3442 138.481L51.5743 138.949L56.1166 148.184L46.2948 148.586L45.7331 148.609L45.4608 149.101L40.4329 158.184L40.1805 158.64L40.4097 159.108L42.9343 164.265L37.5479 164.494L36.9879 164.518L36.716 165.008L33.7843 170.291L33.5905 170.64L33.6905 171.026L36.4112 181.543L36.6191 182.347L37.4474 182.29L54.0814 181.155L54.6243 181.118L54.888 180.642L89.3584 118.435C96.1192 119.026 102.913 117.675 108.94 114.533C115.162 111.289 120.289 106.281 123.677 100.136C126.923 94.2782 128.454 87.6247 128.095 80.9373C127.735 74.2496 125.499 67.7983 121.644 62.3221C117.788 56.8459 112.468 52.5663 106.293 49.9732C100.118 47.3801 93.3374 46.5784 86.7279 47.66C80.1184 48.7415 73.947 51.6625 68.9205 56.0885C63.894 60.5145 60.2156 66.2666 58.3063 72.6861C56.3971 79.1056 56.3343 85.933 58.1251 92.3866C59.8453 98.5856 63.209 104.199 67.8537 108.636L63.5644 116.374ZM92.1079 65.0487L92.1086 65.0474C92.6772 64.0195 93.4429 63.1138 94.3618 62.3821C95.2807 61.6504 96.3349 61.1071 97.4641 60.7832C98.5932 60.4594 99.7751 60.3613 100.942 60.4946C102.109 60.628 103.239 60.9901 104.266 61.5603L104.751 60.6861L104.267 61.5611C105.816 62.4184 107.076 63.7159 107.888 65.2896C108.699 66.8633 109.026 68.6423 108.826 70.4017C108.627 72.161 107.91 73.8216 106.766 75.1733C105.622 76.525 104.103 77.5071 102.401 77.9953C100.699 78.4835 98.8905 78.4559 97.2042 77.9159C95.5179 77.376 94.0296 76.348 92.9277 74.962C91.8258 73.576 91.1597 71.8943 91.0138 70.1297C90.8679 68.3651 91.2487 66.5968 92.1079 65.0487Z" fill="#292C32" stroke="#292C32" stroke-width="2"/>
<path d="M70.5644 112.374L70.3111 112.831L70.5416 113.3L75.0878 122.548L65.2635 122.938L64.7 122.96L64.4275 123.454L58.596 134.024L58.3442 134.481L58.5743 134.949L63.1166 144.184L53.2948 144.586L52.7331 144.609L52.4608 145.101L47.4329 154.184L47.1805 154.64L47.4097 155.108L49.9343 160.265L44.5479 160.494L43.9879 160.518L43.716 161.008L40.7843 166.291L40.5905 166.64L40.6905 167.026L43.4112 177.543L43.6191 178.347L44.4474 178.29L61.0814 177.155L61.6243 177.118L61.888 176.642L96.3584 114.435C103.119 115.026 109.913 113.675 115.94 110.533C122.162 107.289 127.289 102.281 130.677 96.1359C133.923 90.2782 135.454 83.6247 135.095 76.9373C134.735 70.2496 132.499 63.7983 128.644 58.3221C124.788 52.8459 119.468 48.5663 113.293 45.9732C107.118 43.3801 100.337 42.5784 93.7279 43.66C87.1184 44.7415 80.947 47.6625 75.9205 52.0885C70.894 56.5145 67.2156 62.2666 65.3063 68.6861C63.3971 75.1056 63.3343 81.933 65.1251 88.3866C66.8453 94.5856 70.209 100.199 74.8537 104.636L70.5644 112.374ZM99.1079 61.0487L99.1086 61.0474C99.6772 60.0195 100.443 59.1138 101.362 58.3821C102.281 57.6504 103.335 57.1071 104.464 56.7832C105.593 56.4594 106.775 56.3613 107.942 56.4946C109.109 56.628 110.239 56.9901 111.266 57.5603L111.751 56.6861L111.267 57.5611C112.816 58.4184 114.076 59.7159 114.888 61.2896C115.699 62.8633 116.026 64.6423 115.826 66.4017C115.627 68.161 114.91 69.8216 113.766 71.1733C112.622 72.525 111.103 73.5071 109.401 73.9953C107.699 74.4835 105.891 74.4559 104.204 73.9159C102.518 73.376 101.03 72.348 99.9277 70.962C98.8258 69.576 98.1597 67.8943 98.0138 66.1297C97.8679 64.3651 98.2487 62.5968 99.1079 61.0487Z" fill="#1E756B" stroke="#292C32" stroke-width="2"/>
<mask id="path-6-outside-1" maskUnits="userSpaceOnUse" x="84.0332" y="14.8403" width="41" height="60" fill="black">
<rect fill="white" x="84.0332" y="14.8403" width="41" height="60"/>
<path d="M104.539 71.9497C108.024 72.1216 111.464 70.6998 114.432 67.8613C117.399 65.0228 119.763 60.8931 121.228 55.9863C122.694 51.0796 123.196 45.6126 122.673 40.2663C122.15 34.9199 120.624 29.9304 118.286 25.9189C115.948 21.9075 112.901 19.0515 109.524 17.7065C106.147 16.3615 102.589 16.5869 99.2942 18.3548C95.9991 20.1226 93.1122 23.3547 90.9929 27.6487C88.8736 31.9426 87.2734 38.615 87.0332 44.0098C87.0332 44.0098 89.3015 43.1242 90.8891 42.9582C92.4766 42.7921 93.8468 42.5857 93.8468 42.5857C94.0066 38.9948 94.3006 36.1087 95.7112 33.2506C97.1219 30.3925 99.0435 28.2411 101.237 27.0644C103.43 25.8876 105.798 25.7376 108.046 26.6328C110.294 27.5281 112.322 29.4291 113.878 32.0992C115.435 34.7693 116.45 38.0905 116.798 41.6492C117.147 45.2078 116.812 48.8468 115.837 52.1128C114.861 55.3788 113.288 58.1277 111.313 60.0171C109.337 61.9064 107.047 62.8528 104.728 62.7384L104.539 71.9497Z"/>
</mask>
<path d="M104.539 71.9497C108.024 72.1216 111.464 70.6998 114.432 67.8613C117.399 65.0228 119.763 60.8931 121.228 55.9863C122.694 51.0796 123.196 45.6126 122.673 40.2663C122.15 34.9199 120.624 29.9304 118.286 25.9189C115.948 21.9075 112.901 19.0515 109.524 17.7065C106.147 16.3615 102.589 16.5869 99.2942 18.3548C95.9991 20.1226 93.1122 23.3547 90.9929 27.6487C88.8736 31.9426 87.2734 38.615 87.0332 44.0098C87.0332 44.0098 89.3015 43.1242 90.8891 42.9582C92.4766 42.7921 93.8468 42.5857 93.8468 42.5857C94.0066 38.9948 94.3006 36.1087 95.7112 33.2506C97.1219 30.3925 99.0435 28.2411 101.237 27.0644C103.43 25.8876 105.798 25.7376 108.046 26.6328C110.294 27.5281 112.322 29.4291 113.878 32.0992C115.435 34.7693 116.45 38.0905 116.798 41.6492C117.147 45.2078 116.812 48.8468 115.837 52.1128C114.861 55.3788 113.288 58.1277 111.313 60.0171C109.337 61.9064 107.047 62.8528 104.728 62.7384L104.539 71.9497Z" fill="#FFD584"/>
<path d="M104.539 71.9497L102.539 71.9087L102.499 73.8515L104.44 73.9473L104.539 71.9497ZM87.0332 44.0098L85.0352 43.9208L84.8985 46.9903L87.7606 45.8728L87.0332 44.0098ZM93.8468 42.5857L94.1447 44.5634L95.7716 44.3183L95.8448 42.6747L93.8468 42.5857ZM104.728 62.7384L104.826 60.7408L102.77 60.6394L102.728 62.6974L104.728 62.7384ZM104.44 73.9473C108.571 74.1511 112.526 72.4518 115.814 69.3066L113.049 66.416C110.402 68.9479 107.476 70.0922 104.637 69.9521L104.44 73.9473ZM115.814 69.3066C119.087 66.176 121.604 61.7167 123.145 56.5587L119.312 55.414C117.922 60.0695 115.711 63.8697 113.049 66.416L115.814 69.3066ZM123.145 56.5587C124.688 51.3914 125.211 45.6631 124.664 40.0715L120.683 40.4611C121.182 45.5622 120.7 50.7678 119.312 55.414L123.145 56.5587ZM124.664 40.0715C124.117 34.4834 122.518 29.2081 120.014 24.9118L116.558 26.9261C118.73 30.6526 120.183 35.3564 120.683 40.4611L124.664 40.0715ZM120.014 24.9118C117.514 20.6228 114.159 17.3999 110.264 15.8484L108.784 19.5645C111.642 20.7031 114.382 23.1922 116.558 26.9261L120.014 24.9118ZM110.264 15.8484C106.32 14.2779 102.147 14.5547 98.3486 16.5924L100.24 20.1172C103.032 18.6192 105.973 18.4451 108.784 19.5645L110.264 15.8484ZM98.3486 16.5924C94.5953 18.6061 91.4514 22.2009 89.1995 26.7635L92.7864 28.5338C94.7731 24.5086 97.403 21.6391 100.24 20.1172L98.3486 16.5924ZM89.1995 26.7635C86.9405 31.3403 85.2859 38.2906 85.0352 43.9208L89.0312 44.0987C89.2609 38.9395 90.8067 32.5449 92.7864 28.5338L89.1995 26.7635ZM95.8448 42.6747C96.0033 39.1139 96.2921 36.5925 97.5047 34.1358L93.9178 32.3654C92.309 35.6249 92.0099 38.8758 91.8487 42.4968L95.8448 42.6747ZM97.5047 34.1358C98.7828 31.5463 100.447 29.7576 102.182 28.8267L100.291 25.302C97.6397 26.7246 95.461 29.2386 93.9178 32.3654L97.5047 34.1358ZM102.182 28.8267C103.873 27.9199 105.624 27.8212 107.306 28.4909L108.786 24.7748C105.972 23.654 102.987 23.8554 100.291 25.302L102.182 28.8267ZM107.306 28.4909C109.035 29.1797 110.756 30.7139 112.15 33.1064L115.606 31.0921C113.888 28.1444 111.552 25.8765 108.786 24.7748L107.306 28.4909ZM112.15 33.1064C113.541 35.4916 114.483 38.5271 114.808 41.8439L118.789 41.4544C118.417 37.6539 117.328 34.047 115.606 31.0921L112.15 33.1064ZM114.808 41.8439C115.132 45.1574 114.818 48.535 113.92 51.5405L117.753 52.6851C118.806 49.1585 119.161 45.2583 118.789 41.4544L114.808 41.8439ZM113.92 51.5405C113.02 54.5552 111.6 56.9746 109.93 58.5718L112.695 61.4624C114.976 59.2809 116.703 56.2025 117.753 52.6851L113.92 51.5405ZM109.93 58.5718C108.275 60.1545 106.5 60.8234 104.826 60.7408L104.629 64.736C107.594 64.8823 110.399 63.6584 112.695 61.4624L109.93 58.5718ZM102.728 62.6974L102.539 71.9087L106.538 71.9907L106.727 62.7794L102.728 62.6974ZM87.0332 44.0098C87.7606 45.8728 87.7604 45.8729 87.7603 45.8729C87.7603 45.873 87.7601 45.873 87.7601 45.873C87.7599 45.8731 87.7598 45.8731 87.7597 45.8732C87.7596 45.8732 87.7596 45.8732 87.7597 45.8732C87.7599 45.8731 87.7607 45.8728 87.762 45.8723C87.7646 45.8713 87.7692 45.8695 87.7759 45.8669C87.7892 45.8618 87.8105 45.8537 87.839 45.8429C87.8961 45.8214 87.9819 45.7895 88.0908 45.7503C88.3094 45.6714 88.6169 45.5645 88.969 45.4531C89.7075 45.2195 90.513 45.0084 91.0971 44.9473L90.681 40.969C89.6775 41.074 88.5551 41.3887 87.7626 41.6394C87.3492 41.7701 86.9904 41.895 86.734 41.9874C86.6055 42.0337 86.5017 42.0723 86.4285 42.0999C86.3919 42.1137 86.3629 42.1247 86.3423 42.1327C86.3319 42.1366 86.3236 42.1398 86.3175 42.1422C86.3145 42.1434 86.312 42.1443 86.31 42.1451C86.309 42.1455 86.3082 42.1458 86.3075 42.1461C86.3072 42.1462 86.3068 42.1464 86.3066 42.1465C86.3064 42.1465 86.3062 42.1466 86.3062 42.1466C86.306 42.1467 86.3058 42.1467 87.0332 44.0098ZM91.0971 44.9473C91.9154 44.8617 92.6748 44.7661 93.2284 44.692C93.5057 44.6549 93.7328 44.6231 93.8914 44.6004C93.9707 44.589 94.033 44.5799 94.0759 44.5736C94.0974 44.5704 94.1141 44.568 94.1256 44.5662C94.1314 44.5654 94.1359 44.5647 94.1391 44.5642C94.1407 44.564 94.142 44.5638 94.1429 44.5637C94.1434 44.5636 94.1437 44.5635 94.144 44.5635C94.1442 44.5635 94.1443 44.5635 94.1444 44.5634C94.1445 44.5634 94.1446 44.5634 94.1446 44.5634C94.1446 44.5634 94.1447 44.5634 93.8468 42.5857C93.5488 40.608 93.5488 40.608 93.5489 40.608C93.5489 40.608 93.5489 40.608 93.5489 40.608C93.549 40.608 93.549 40.608 93.549 40.608C93.5489 40.608 93.5488 40.608 93.5486 40.6081C93.5482 40.6081 93.5475 40.6082 93.5465 40.6084C93.5444 40.6087 93.541 40.6092 93.5363 40.6099C93.5271 40.6113 93.5127 40.6134 93.4936 40.6162C93.4555 40.6218 93.3983 40.6302 93.3244 40.6408C93.1764 40.6619 92.9617 40.6921 92.6981 40.7273C92.1698 40.798 91.4503 40.8886 90.681 40.969L91.0971 44.9473Z" fill="#292C32" mask="url(#path-6-outside-1)"/>
</svg>
